<?xml version="1.0" encoding="UTF-8" standalone="no"?>
<svg
   viewBox="0 0 127.24699 60.223201"
   version="1.1"
   id="svg8"
   sodipodi:docname="arduino-original.svg"
   width="127.24699"
   height="60.223202"
   inkscape:version="1.2 (dc2aedaf03, 2022-05-15)"
   xmlns:inkscape="http://www.inkscape.org/namespaces/inkscape"
   xmlns:sodipodi="http://sodipodi.sourceforge.net/DTD/sodipodi-0.dtd"
   xmlns="http://www.w3.org/2000/svg"
   xmlns:svg="http://www.w3.org/2000/svg">
  <defs
     id="defs12" />
  <sodipodi:namedview
     id="namedview10"
     pagecolor="#ffffff"
     bordercolor="#666666"
     borderopacity="1.0"
     inkscape:showpageshadow="2"
     inkscape:pageopacity="0.0"
     inkscape:pagecheckerboard="0"
     inkscape:deskcolor="#d1d1d1"
     showgrid="false"
     inkscape:zoom="4.6238154"
     inkscape:cx="69.639458"
     inkscape:cy="20.978346"
     inkscape:window-width="1920"
     inkscape:window-height="1017"
     inkscape:window-x="-8"
     inkscape:window-y="-8"
     inkscape:window-maximized="1"
     inkscape:current-layer="svg8" />
  <path
     d="M 0,34.8 V 25.2 C 0.2,25.1 0.2,24.9 0.2,24.7 3.2,11.6 11.4,3.7 24.4,0.6 25.5,0.3 26.7,0.4 27.8,0 h 6.4 c 0.1,0.2 0.4,0.1 0.6,0.1 6.4,0.7 12.2,3 17.3,7 4.4,3.3 7.8,7.5 10.9,12 0.4,0.6 0.6,0.6 1,0 1.8,-2.6 3.7,-5.1 5.9,-7.4 C 75.2,6 81.6,2 89.4,0.6 90.5,0.3 91.8,0.4 92.9,0 h 6.2 c 0.1,0.2 0.3,0.1 0.5,0.1 1.9,0.2 3.7,0.6 5.5,1.1 13.4,3.9 22.9,16.2 22.1,30.1 -0.6,11.7 -6.5,20.1 -16.8,25.4 -5.1,2.8 -10.7,3.5 -16.5,3.4 C 86.3,60 79.7,57.4 74,52.4 70,48.9 66.9,44.7 64,40.3 c -0.4,-0.6 -0.6,-0.5 -1,0.1 -1.8,2.7 -3.7,5.4 -5.9,8 -3.9,4.4 -8.4,8 -14,9.9 -6.9,2.4 -13.9,2.5 -20.9,0.6 C 12.1,56 5.2,49.6 1.4,39.8 0.8,38.2 0.5,36.4 0,34.8 Z m 31.8,14.7 c 5.7,0.2 10.6,-1.7 14.8,-5.6 4.3,-4 7.4,-9 10.5,-13.9 C 57.2,29.7 57.2,29.5 57,29.2 54.4,25.1 51.7,21 48.1,17.6 41.2,11 33.1,8.8 24,11.7 c -7.5,2.5 -12.3,7.8 -13.4,15.8 -1.1,7.5 1.8,13.5 7.8,18 4,2.9 8.5,4.1 13.4,4 z m 63.4,0 c 2.2,0 4.4,-0.1 6.5,-0.7 7.9,-2.4 13.1,-7.3 14.6,-15.5 1.5,-8.1 -1.6,-14.6 -8.4,-19.2 -7.5,-5.2 -18.4,-4.7 -26,1 -5.1,3.8 -8.5,8.9 -11.9,14.2 -0.2,0.3 -0.1,0.5 0,0.8 2.7,4.3 5.4,8.6 8.9,12.3 4.4,4.7 9.7,7.4 16.3,7.1 z m 0,0"
     id="path2"
     style="fill:#00979c;fill-rule:evenodd" />
  <path
     d="m 32.781358,39.776296 c 3.2,0 6.5,0.1 9.7,0 0.8,0 0.9,0.2 0.9,1 -0.1,0.9 -0.1,1.8 0,2.7 0.1,0.8 -0.1,1 -1,1 h -12.8 c -2.2,0 -4.4,-0.1 -6.6,0 -0.7,0 -0.9,-0.2 -0.9,-1 0.1,-0.9 0.1,-1.8 0,-2.8 0,-0.7 0.2,-0.9 0.9,-0.9 3.2,0.1 6.5,0 9.8,0 z m 63,-6.4 c 0.8,0 1.6,0.1 2.3,0 0.5,0 0.7,0.2 0.7,0.7 -0.1,1.4 0,2.8 -0.1,4.2 0,0.7 0.2,0.9 0.9,0.9 1.300002,-0.1 2.700002,0 4.100002,-0.1 0.6,0 0.8,0.1 0.8,0.8 v 4.6 c 0,0.5 -0.2,0.7 -0.7,0.7 -1.4,-0.1 -2.8,0 -4.300002,-0.1 -0.6,0 -0.8,0.2 -0.8,0.8 0.1,1.4 0,2.8 0.1,4.2 0,0.6 -0.2,0.9 -0.8,0.9 -1.5,-0.1 -3,-0.1 -4.5,0 -0.6,0 -0.8,-0.2 -0.8,-0.8 0.1,-1.5 0,-2.9 0.1,-4.4 0,-0.5 -0.2,-0.7 -0.7,-0.7 -1.4,0.1 -2.8,0 -4.2,0.1 -0.8,0 -0.9,-0.3 -0.9,-0.9 0,-1.4 0.1,-2.8 0,-4.2 -0.1,-0.8 0.3,-1 1,-1 1.4,0.1 2.7,0 4.1,0.1 0.5,0 0.7,-0.2 0.7,-0.7 -0.1,-1.4 0,-2.9 -0.1,-4.3 0,-0.6 0.2,-0.8 0.8,-0.8 0.8,0.1 1.5,0 2.3,0 z m 29.852002,-27.623 c -0.133,0.199 -0.18,0.265 -0.223,0.332 -0.242,0.363 -0.055,1.097 -0.664,1.086 -0.54,-0.012 -0.403,-0.684 -0.594,-1.051 -0.05,-0.098 -0.11,-0.188 -0.277,-0.461 0,0.504 0.008,0.789 0,1.078 -0.008,0.195 0.035,0.441 -0.274,0.457 -0.312,0.016 -0.293,-0.234 -0.297,-0.43 -0.007,-0.68 -0.007,-1.355 -0.003,-2.031 0,-0.23 -0.036,-0.496 0.324,-0.504 0.27,-0.004 0.504,-0.015 0.617,0.336 0.144,0.43 0.195,0.91 0.527,1.324 0.317,-0.402 0.371,-0.867 0.492,-1.293 0.102,-0.347 0.317,-0.37 0.598,-0.37 0.356,0.003 0.34,0.253 0.344,0.488 0.004,0.68 0.004,1.355 -0.004,2.035 -0.004,0.191 0.023,0.445 -0.281,0.449 -0.305,0 -0.282,-0.242 -0.285,-0.442 -0.008,-0.289 0,-0.574 0,-1.003 z m -3.712,-1.532 c 0.087,0 0.18,-0.015 0.262,0 0.325,0.063 0.828,-0.187 0.934,0.2 0.144,0.543 -0.426,0.27 -0.668,0.386 -0.242,0.117 -0.195,0.332 -0.2,0.528 -0.011,0.468 -0.007,0.937 -0.007,1.406 0,0.258 -0.05,0.473 -0.383,0.46 -0.305,-0.01 -0.293,-0.234 -0.293,-0.437 a 36.975,36.975 0 0 1 -0.004,-1.316 c 0.012,-0.375 0.016,-0.727 -0.523,-0.676 -0.188,0.016 -0.352,-0.039 -0.352,-0.277 0,-0.328 0.254,-0.262 0.442,-0.27 0.265,-0.012 0.527,-0.004 0.793,-0.004 z m 0,0"
     id="path4"
     style="fill:#00979c;fill-rule:evenodd" />
</svg>
